<?xml version="1.0" encoding="utf-8"?><!-- Uploaded to: SVG Repo, www.svgrepo.com, Generator: SVG Repo Mixer Tools -->
<svg xmlns="http://www.w3.org/2000/svg" width="32" height="32" viewBox="0 0 8.467 8.467" id="cash-back" fill="#818df8">
<path d="M 4.3256457,0.49002901 C 3.518724,0.48392971 2.7711813,1.0107231 2.5330176,1.8227628 2.2454237,2.803339 2.8083298,3.8359636 3.788838,4.123819 4.8579144,4.3989162 5.8326519,3.7712499 6.0795583,2.7781809 6.3066759,1.8257136 5.7815768,0.84323993 4.8314838,0.5648727 4.6629322,0.51548885 4.4931201,0.4912949 4.3256457,0.49002901 Z m -0.042325,0.26427564 c 0.156309,-0.002487 0.315656,0.0181753 0.4738361,0.0645204 C 5.6007835,1.0659988 6.0823652,1.94792 5.8354175,2.7916014 5.587556,3.6350148 4.7226591,4.1587903 3.8791663,3.9111597 3.0356733,3.663529 2.5390482,2.7406377 2.7864528,1.8970903 2.987469,1.2117079 3.6059817,0.76508319 4.2833207,0.75430465 Z m 0.00516,0.19201276 C 3.6925121,0.95674111 3.1443892,1.3508676 2.9681416,1.9518036 2.7512213,2.6914172 3.1778045,3.4689933 3.9173622,3.6861124 4.9080149,3.8570638 5.4406137,3.2456788 5.6439186,2.6527527 5.80357,1.9402137 5.4149307,1.2107271 4.7045081,1.0025792 4.5631006,0.95793479 4.4127813,0.95698489 4.2884807,0.94631741 Z m 0.00361,0.26375949 C 4.4037742,1.2083369 4.517698,1.2234249 4.6306925,1.2565319 5.2333298,1.4330995 5.5761779,2.0598795 5.3997728,2.6625608 5.1842833,3.2555728 4.6228768,3.6757401 3.9834308,3.4569359 3.3808892,3.2800419 3.0453614,2.6287168 3.2220929,2.0261311 3.3908135,1.5472494 3.7889023,1.1941688 4.2920907,1.2100769 Z m 0.02013,0.1109751 C 4.2386398,1.3204794 4.1787661,1.3801235 4.1790559,1.453706 V 1.6214591 C 3.9826561,1.672983 3.8296148,1.8357866 3.8296148,2.041616 c 0,0.249913 0.2276652,0.4363584 0.4826108,0.4356419 0.1303862,-3.665e-4 0.214723,0.085735 0.214723,0.1718824 0,0.086148 -0.086402,0.1715161 -0.2167877,0.1718824 C 4.2095753,2.8213054 4.1332238,2.7659057 4.1067934,2.7059182 4.0769619,2.6388121 3.998136,2.6089045 3.9312985,2.6393332 c -0.066233,0.029825 -0.095974,0.1075192 -0.066585,0.173947 0.056816,0.1289518 0.1741328,0.2207581 0.3143422,0.2565332 v 0.1672369 c 8.504e-4,0.072776 0.060391,0.1311629 0.1331697,0.1305894 0.071773,-8.364e-4 0.1297527,-0.058816 0.1305888,-0.1305894 V 3.0692972 C 4.639281,3.0178136 4.7927717,2.8550176 4.7927717,2.6491403 4.7927717,2.3992279 4.5651072,2.2127819 4.3101609,2.2134984 4.179776,2.2138649 4.0954378,2.1277629 4.0954378,2.041616 c 0.00817,-0.1131578 0.071083,-0.1649996 0.2209178,-0.1718824 0.098515,0.00124 0.1726589,0.05595 0.1987221,0.1151044 0.029831,0.0674 0.1090384,0.097364 0.176011,0.066585 C 4.7571227,2.021404 4.7866127,1.9437642 4.7571577,1.877476 4.7002678,1.7483592 4.5832627,1.6561025 4.4428144,1.6204267 V 1.453706 C 4.4384793,1.3594663 4.3696938,1.3221003 4.3122207,1.321052 Z M 6.0573615,4.3703823 C 5.9272026,4.4607523 5.8405775,4.5345127 5.7337337,4.617787 L 5.1324058,4.9785855 C 5.0612537,4.9643036 4.9915783,4.9564112 4.9290383,4.9538096 4.6605072,4.9426391 4.4487666,5.0274848 3.8275501,4.8836114 3.5814858,4.8266231 3.3968251,4.7469768 3.1911233,4.6957279 2.9854213,4.6444791 2.7587819,4.6288921 2.4684975,4.7039866 2.2570703,4.7586812 2.1749833,4.8209075 1.9213665,4.9037418 1.8655069,4.7607476 1.7487447,4.7331032 1.6266384,4.7628292 L 0.78529557,5.0167816 C 0.65834911,5.0551325 0.58324031,5.1942336 0.62115628,5.3218341 L 1.3324265,7.7163159 c 0.037916,0.1276005 0.1765561,0.2014586 0.3035028,0.1631076 L 2.4772722,7.6254711 C 2.6470891,7.571472 2.6821245,7.5108628 2.6321215,7.2894487 c 0.1702718,-0.011342 0.353396,0.019383 0.5239037,0.056778 0.105865,0.023216 0.2058022,0.049135 0.3004059,0.064521 0.092175,0.014991 0.1800139,0.024302 0.2704685,-0.00361 0.8398142,-0.1891521 1.2107869,-0.2541026 2.5756438,-0.5042953 0.023763,-0.00428 0.045899,-0.014993 0.064004,-0.03097 C 6.6857409,6.5876985 7.0073548,6.3013348 7.3255749,6.0181382 7.558082,5.7950432 7.9413959,5.3066176 7.9625181,5.2702178 8.0173379,5.1647057 8.0354366,5.0259184 7.9702605,4.9068388 7.8725267,4.728262 7.6572989,4.6479615 7.4515184,4.6952118 7.2889547,4.388217 6.995123,4.3629932 6.7712179,4.4732615 6.6926927,4.3923016 6.6568482,4.3726021 6.569915,4.3308005 6.4602242,4.2740464 6.2244516,4.2852889 6.0573615,4.3703823 Z M 6.5513283,4.6167546 6.1244678,4.901161 5.5546257,5.1685336 c -0.032266,-0.032914 -0.069467,-0.05017 -0.1022,-0.07381 0.1449658,-0.08709 0.2921764,-0.176397 0.4356396,-0.263757 l 0.305052,-0.2364067 c 0.1043175,-0.076195 0.2352471,-0.078953 0.358211,0.022195 z M 7.2006567,4.8242531 C 7.1846199,4.8534956 6.7736192,5.1294777 6.5601005,5.28209 6.2442392,5.4148055 5.9245138,5.5483361 5.6041696,5.66405 5.6729265,5.5544219 5.6676246,5.4912145 5.6769456,5.4049345 5.8719439,5.3132311 6.070664,5.2182676 6.2633157,5.1256891 L 6.8646431,4.7251493 c 0.1670642,-0.096985 0.3582029,-0.027285 0.3360136,0.099104 z m -4.3414251,0.090328 c 0.094783,6.418e-4 0.1805455,0.015016 0.2694361,0.037164 C 3.3064489,4.9960381 3.4979743,5.078834 3.7671592,5.141177 4.4244398,5.2934029 4.7213889,5.211383 4.9197474,5.219634 5.2584525,5.2056725 5.4573651,5.3463474 5.3822284,5.5179769 5.298321,5.6467292 5.2117437,5.7107912 5.0854351,5.7564436 4.9591266,5.8020956 4.7895068,5.82306 4.5661769,5.8364489 4.2688055,5.8542759 3.7896038,5.886115 3.4760443,5.8715481 3.4032294,5.868041 3.3413302,5.9241662 3.3377131,5.9969757 c -0.0035,0.073394 0.053551,0.135545 0.1269756,0.1383318 0.3431004,0.015937 0.8220825,-0.017421 1.116973,-0.035099 0.2279027,-0.013351 0.4429122,-0.054461 0.6348775,-0.10169 C 5.391543,5.9698993 5.5740516,5.9367665 5.7456043,5.9050955 6.0629733,5.7738564 6.387112,5.640512 6.7005039,5.5066208 L 7.4138387,4.9987158 C 7.6113805,4.9007251 7.7739331,5.0231053 7.726116,5.1489193 7.5392585,5.3724227 7.3367415,5.5990254 7.1304661,5.8385136 L 6.2184092,6.6509547 C 4.8975811,6.8929801 4.499848,6.9626289 3.6634108,7.151117 3.6038207,7.1670856 3.5457783,7.1496288 3.4997879,7.149047 3.4212942,7.1362862 3.3220649,7.1127354 3.2122859,7.0886612 3.0191912,7.0463164 2.7910817,7.0033959 2.5557287,7.0318833 L 1.9982745,5.157178 C 2.2716466,5.0689196 2.3567601,5.0054845 2.5345661,4.9594874 2.6602919,4.926963 2.7644483,4.9139395 2.8592316,4.9145811 Z M 1.6829,5.021427 2.3833309,7.3782289 1.5796677,7.6213418 0.87923692,5.2640238 Z" color="#000" transform="matrix(1.00117 0 0 1.00116 -.083 .039)"></path>
</svg>
              